<svg xmlns="http://www.w3.org/2000/svg" viewBox="0 0 8.09 9.44"><g fill="#1f3645"><path d="M1.34 2.02h6.07c.38 0 .68.3.68.68v6.04c0 .4-.3.7-.7.7H1.38C.6 9.44 0 8.84 0 8.07v-6.7C0 .62.59 0 1.35 0h6.08c.36 0 .65.3.65.65v1.29a1 1 0 0 0-.67-.25v-.68c0-.18-.14-.34-.34-.34H1.35c-.38 0-.67.3-.68.66s.27.68.66.68Zm2.03 4.05v.67h.67V5.56c0-.69-.22-1.34-.51-1.95-.07-.15-.18-.24-.35-.24h-.97c-.17 0-.28.09-.35.24-.29.62-.51 1.28-.51 1.97v1.16h.67v-.67zm4.05 2.02v-.67H5.54l1.79-1.79c.05-.06.09-.14.09-.23v-.68h-2.7v.67H6.6L4.83 7.16a.34.34 0 0 0-.11.25v.68z"/><path d="M3.36 5.39H2.04c.04-.48.17-.92.36-1.35h.59c.19.43.32.85.36 1.35Z"/></g></svg>