<svg xmlns="http://www.w3.org/2000/svg" viewBox="0 0 9.68 8.86"><g fill="#1f3645"><path d="M9.11 5.2c.19-.11.33-.23.45-.39.18-.23.16-.53-.04-.75-.27-.29-.55-.56-.84-.83L5.49.29C5.33.14 5.1.08 4.9.03c-.38-.09-.73.03-1 .29L.3 3.73C.02 4-.11 4.45.11 4.81c.09.14.2.27.34.38l4.24-4.15L9.1 5.2ZM6.07 6.65v2.21c.43.01.84-.02 1.25-.12.24-.06.45-.15.64-.29.21-.17.36-.41.33-.69V5.4L4.7 2 1.31 5.38v2.35c.01.28.15.51.36.68.48.37 1.29.47 1.9.47l.02-2.21h2.48Z"/><path d="M6.07 6.65H3.59l-.02 2.21c-.61 0-1.42-.1-1.9-.47a.88.88 0 0 1-.36-.68V5.36L4.7 1.98l3.59 3.4v2.36c.03.28-.11.52-.33.69-.19.14-.4.23-.64.29-.41.1-.82.13-1.25.12V6.63Z"/><path d="M9.11 5.2 4.69 1.04.45 5.19C.31 5.08.2 4.95.11 4.81-.11 4.46.02 4 .3 3.73L3.9.32c.27-.26.63-.38 1-.29.2.05.43.11.59.26l3.18 2.94c.3.27.57.54.84.83.2.22.22.52.04.75-.12.16-.26.27-.45.39Z"/></g></svg>