<svg xmlns="http://www.w3.org/2000/svg" viewBox="0 0 219.16 149.96"><path fill="#1f3645" d="m167.88 120.52-52.32.28 6.55 21.33c.6 1.96 6.04.22 6.25 4.11.09 1.7-1.06 3.72-3.39 3.71l-59.99-.02c-2.39 0-3.57-1.99-3.47-3.69.27-4.56 5.47-1.38 6.53-4.86l6.29-20.71-67.91-.15c-1.82 0-3.69-.74-4.68-1.78-.94-.97-1.74-2.81-1.74-4.69L.04 6.42C.04 2.62 2.74 0 6.57 0h176.68c2.03 0 3.76.73 4.79 1.76.96.96 1.73 2.81 1.73 4.61l.08 62.81-10.92-8.25V11.67l-168.01.03-.03 90.28 132.91.02c1.93 11.96 15.28 10.93 24.09 18.53Zm-67.39-8.35c0-3.08-2.5-5.58-5.58-5.58s-5.58 2.5-5.58 5.58 2.5 5.58 5.58 5.58 5.58-2.5 5.58-5.58"/><circle cx="94.92" cy="112.17" r="5.58" fill="#fcf8f3"/><path fill="#1f3645" d="M193.05 122.23c-1.77 3.33-5.26-2-7.56-2.33-3.04-.06-5.37-.33-7.98-1.87-4.58-2.7-8.96-5.63-13.76-8.01-5.43-2.7-11.98-3.9-13.07-8.62-.46-1.98 1.15-3.6 1.96-5.13-1.08-2.82-1.22-6.27 1.99-8.31-1.49-2.84-1.29-5.75.99-8.11l-15.49-8.6c-2.37-1.31-2.09-4.58-1.13-6.53 1.09-2.22 3.85-4.47 6.48-3.08l24.21 12.74c-.36-2.5-.22-4.81 1.69-6.18 1.9-1.37 4.36-1.18 6.38.4l17.45 13.59c5.04 3.93 7.27 9.69 6.71 15.98 1.15.54 3.17 1.49 2.44 2.86l-11.3 21.2Z"/><path fill="#223947" d="M206.89 131.57c-2.11 3.93-5.85.38-9.89-1.58-1.39-.68-1.85-2.05-1.42-3.59l12.35-23.02c.75-1.4 2.14-1.69 3.63-1.29l5.99 3.2c1.45.77 1.9 2.21 1.4 3.8l-12.07 22.49Zm-1.02-5.26a3.24 3.24 0 1 0-6.48 0 3.24 3.24 0 1 0 6.48 0"/><circle cx="202.62" cy="126.31" r="3.24" fill="#fcf8f3"/><path fill="#f39577" d="M137.81 77.96c.23 3.38.01 6.04-1.9 8.2-1.69 1.92-4.08 3-7.21 2.99l-69.16-.11c-4.44 0-7.48-4.03-7.48-8.09V33c0-4.25 2.81-8.2 7.44-8.2h70.83c3.65-.01 7.29 3.07 7.31 6.58l.15 25.03c-4.05 2.41-6.11 6.47-6.27 10.66-.16 4.48 2.15 8.55 6.3 10.89ZM67.25 39.65c1.52-1.89 1.5-7.32-.2-8.7-1.81-1.47-7.14-1.44-8.81.13-1.5 1.79-1.33 6.8-.14 8.73 1.81 1.55 7.51 1.87 9.15-.16m49-9.46H73.59v53.49h42.66zm15.27 9.56c1.59-1.75 1.58-7.39-.17-8.82-1.73-1.41-7.14-1.47-8.69.15-1.56 1.62-1.58 7.01-.1 8.66s7.25 1.89 8.96.01M67.38 60.97c1.38-1.78 1.3-6.99-.15-8.51-1.86-1.71-6.28-1.16-8.4-.46-2.17.71-2.2 8.93-.19 9.64 2.1.75 7.06 1.49 8.74-.67m64.14.16c1.88-1.84 1.01-6.32.31-8.23-.75-2.06-9.07-2.05-9.68.06-.63 2.16-1.24 6.25.37 8.24 1.6 1.64 7.17 1.72 8.99-.07ZM67.2 82.74c1.66-2.16 1.22-6.71.26-8.6-.9-1.77-9.01-1.94-9.62.24-.68 2.42-1.05 6.11.35 8.54 1.97 1.03 7.26 1.5 9.02-.18Zm64.58.5c.81-3.2 1.31-6.46.04-9.14-.72-1.51-8.91-2.1-9.64.25-.69 2.22-1.17 6.91.54 8.59 2.43 1.71 6.03.43 9.07.3Z"/><path fill="#fefdfb" d="M116.25 30.19v53.49H73.59V30.19zm-11.36 28.86c.94-.61 1.37-1.61 1.25-2.29-.09-.48-.4-1.45-1.03-1.87L86.58 42.84c-.68-.44-1.56-.55-2.03-.29-.48.27-1.22.98-1.22 1.84l.02 24.6c0 1.03.41 1.96 1.08 2.09.61.12 1.51.34 2.18-.09l18.28-11.93Z"/><path fill="#fcf8f3" d="M67.2 82.74c-1.76 1.68-7.05 1.22-9.02.18-1.4-2.43-1.03-6.13-.35-8.54.61-2.18 8.73-2 9.62-.24.96 1.89 1.41 6.43-.26 8.6Zm64.58.5c-3.04.14-6.64 1.41-9.07-.3-1.7-1.68-1.23-6.37-.54-8.59.73-2.35 8.92-1.76 9.64-.25 1.27 2.68.77 5.94-.04 9.14ZM67.25 39.65c-1.63 2.03-7.34 1.72-9.15.16-1.19-1.93-1.35-6.94.14-8.73 1.67-1.56 7-1.59 8.81-.13 1.7 1.38 1.72 6.8.2 8.7m64.27 21.48c-1.82 1.79-7.39 1.7-8.99.07-1.61-1.99-1-6.07-.37-8.24.61-2.11 8.93-2.11 9.68-.06.69 1.91 1.56 6.39-.31 8.23Zm-64.14-.16c-1.68 2.16-6.64 1.42-8.74.67-2-.72-1.98-8.93.19-9.64 2.12-.69 6.53-1.24 8.4.46 1.46 1.52 1.53 6.73.15 8.51m64.14-21.22c-1.71 1.88-7.42 1.71-8.96-.01s-1.46-7.03.1-8.66c1.56-1.62 6.96-1.56 8.69-.15 1.75 1.43 1.76 7.07.17 8.82"/><path fill="#eb5a5d" d="M104.89 59.05 86.61 70.98c-.67.44-1.58.22-2.18.09-.67-.14-1.08-1.06-1.08-2.09l-.02-24.6c0-.85.74-1.57 1.22-1.84.47-.26 1.35-.15 2.03.29l18.53 12.05c.63.41.95 1.39 1.03 1.87.13.68-.31 1.68-1.25 2.29Z"/></svg>