<svg xmlns="http://www.w3.org/2000/svg" viewBox="0 0 9.04 9.68"><g fill="#1f3645"><path d="M7.74.81h.34c.51 0 .96.42.96.95V8.7c0 .54-.42.99-.97.99H.97A.98.98 0 0 1 0 8.71V1.72C0 1.21.48.81.96.81h.33c.09 0 .16.07.16.16v.65c0 .7.57 1.29 1.27 1.29h3.55c.73 0 1.32-.58 1.32-1.31V.97c0-.08.05-.16.15-.16M6.9 5.07c.06-.06.08-.16.02-.22l-.32-.32c-.06-.06-.16-.07-.22 0L3.91 6.99 2.65 5.73a.145.145 0 0 0-.21 0l-.31.31c-.07.07-.06.16 0 .23l1.56 1.55c.13.13.36.09.47-.02"/><path d="M6.3 1.94H2.76c-.21 0-.35-.14-.35-.34V.99c.01-.54.43-.99.98-.99h2.26c.54 0 .97.43.97.97v.63c0 .17-.12.34-.31.34Z"/></g></svg>